<svg id="visual" viewBox="0 0 1200 200" width="1200" height="200" xmlns="http://www.w3.org/2000/svg" xmlns:xlink="http://www.w3.org/1999/xlink" version="1.1"><path d="M0 72L16.7 74C33.3 76 66.7 80 100 92C133.3 104 166.7 124 200 130.5C233.3 137 266.7 130 300 125.5C333.3 121 366.7 119 400 106.8C433.3 94.7 466.7 72.3 500 69.8C533.3 67.3 566.7 84.7 600 88.7C633.3 92.7 666.7 83.3 700 82.8C733.3 82.3 766.7 90.7 800 98.3C833.3 106 866.7 113 900 115.3C933.3 117.7 966.7 115.3 1000 107C1033.3 98.7 1066.7 84.3 1100 85.5C1133.3 86.7 1166.7 103.3 1183.3 111.7L1200 120L1200 201L1183.3 201C1166.7 201 1133.3 201 1100 201C1066.7 201 1033.3 201 1000 201C966.7 201 933.3 201 900 201C866.7 201 833.3 201 800 201C766.7 201 733.3 201 700 201C666.7 201 633.3 201 600 201C566.7 201 533.3 201 500 201C466.7 201 433.3 201 400 201C366.7 201 333.3 201 300 201C266.7 201 233.3 201 200 201C166.7 201 133.3 201 100 201C66.7 201 33.3 201 16.7 201L0 201Z" fill="#3F2B96" stroke-linecap="round" stroke-linejoin="miter"></path></svg>