<svg id="visual" viewBox="0 0 1200 600" width="1200" height="600" xmlns="http://www.w3.org/2000/svg" xmlns:xlink="http://www.w3.org/1999/xlink" version="1.1"><path d="M0 470L28.5 465.2C57 460.3 114 450.7 171.2 457C228.3 463.3 285.7 485.7 342.8 499.2C400 512.7 457 517.3 514.2 505.7C571.3 494 628.7 466 685.8 463.8C743 461.7 800 485.3 857.2 482.2C914.3 479 971.7 449 1028.8 436.3C1086 423.7 1143 428.3 1171.5 430.7L1200 433L1200 601L1171.5 601C1143 601 1086 601 1028.8 601C971.7 601 914.3 601 857.2 601C800 601 743 601 685.8 601C628.7 601 571.3 601 514.2 601C457 601 400 601 342.8 601C285.7 601 228.3 601 171.2 601C114 601 57 601 28.5 601L0 601Z" fill="#0066FF" stroke-linecap="round" stroke-linejoin="miter"></path></svg>